<svg xmlns="http://www.w3.org/2000/svg" viewBox="0 0 1680 190" fill="none" stroke="currentColor" stroke-width="3.2" stroke-linecap="round" stroke-linejoin="round">
  
  <line x1="0" y1="176" x2="1680" y2="176" stroke-width="2"></line>

  
  <path d="M40 176 L110 70 L180 176 M120 176 L168 106"></path>
  <path d="M150 176 L196 108 L242 176"></path>

  
  <path d="M300 176 L322 60 Q327 46 332 60 L354 176 M312 130 H342 M305 158 H349 M327 60 V30 M319 30 H335"></path>

  
  <path d="M430 176 V70 H470 V176 M430 70 L450 44 L470 70 M450 44 V30 M438 96 H462 M450 84 V108 M444 90 L456 102 M456 90 L444 102"></path>

  
  <path d="M556 176 V120 Q556 92 584 92 Q612 92 612 120 V176 M568 92 Q584 60 600 92 M584 60 V44 M540 176 V132 M628 176 V132 M540 132 L548 120 M628 132 L620 120"></path>

  
  <path d="M700 176 V108 Q760 76 820 108 V176 M700 132 H820 M718 132 V176 M742 132 V176 M766 132 V176 M790 132 V176 M714 120 a6 8 0 0 1 12 0 M738 116 a6 8 0 0 1 12 0 M762 114 a6 8 0 0 1 12 0 M786 116 a6 8 0 0 1 12 0"></path>

  
  <path d="M900 176 V116 H988 V176 M900 116 Q944 66 988 116 M944 66 Q944 48 944 48 M938 54 H950 M912 138 h20 v38 M956 138 h20 v38"></path>

  
  <path d="M1060 176 V96 H1092 V176 M1180 176 V96 H1212 V176 M1092 112 H1180 M1092 140 Q1136 120 1180 140 M1076 96 V80 H1108 V96 M1196 96 V80 H1228 V96 M1076 84 L1092 70 L1108 84 M1196 84 L1212 70 L1228 84"></path>

  
  <path d="M1300 176 V72 M1320 176 V72 M1300 72 L1310 40 L1320 72 M1310 40 V26 M1290 176 H1330 M1296 120 H1324 M1296 96 H1324"></path>

  
  <path d="M1420 176 V150 H1500 V176 M1414 150 Q1460 130 1506 150 M1428 150 V128 H1492 V150 M1422 128 Q1460 110 1498 128 M1436 128 V108 H1484 V128 M1432 108 Q1460 92 1488 108 M1460 92 V78"></path>

  
  <path d="M1600 176 V108 M1590 176 H1610 M1600 108 Q1592 96 1600 88 Q1608 96 1600 108 M1600 88 L1590 70 M1600 88 V66 M1592 60 h16 l-8 -14 -8 14"></path>
</svg>