<svg xmlns="http://www.w3.org/2000/svg" viewBox="576 1580 1010 240" fill="#B58B4C">
  <path d="M806.32,1583.38v229.7h-28.89v-186.76l-75.5,99.13-75.66-99.13v186.76h-28.89v-229.7h30.81l73.75,96.57,73.59-96.57h30.81Z"></path>
  <path d="M902.23,1583.38v229.7h-28.89v-229.7h28.89Z"></path>
  <path d="M1028.14,1737.9h-26.98v75.18h-28.89v-229.7h65.77c19.16,2.55,35.17,10.32,48.05,23.31,15,15,22.51,32.94,22.51,53.79s-7.72,39.16-23.15,54.59c-10.22,10.32-19.26,16.44-27.14,18.36l51.56,79.65h-33.36l-48.37-75.18ZM1001.16,1608.6v104.08h28.41c13.41,0,25.11-4.97,35.12-14.93,10-9.95,15-22.37,15-37.27s-5-27.14-15-37.03c-10-9.9-21.71-14.85-35.12-14.85h-28.41Z"></path>
  <path d="M1262.44,1583.38l83.16,229.7h-30.01l-34.64-95.46h-62.41l-35.28,95.46h-30.17l84.28-229.7h25.06ZM1271.86,1692.72l-22.03-60.98-22.19,60.98h44.22Z"></path>
  <path d="M1510.14,1608.44h-98.17v-25.06h144.62l-118.12,204.64h124.51v25.06h-170.8l117.96-204.64Z"></path>
</svg>